<?xml version="1.0" encoding="UTF-8"?>
<svg width="200px" height="66px" viewBox="0 0 200 66" version="1.1" xmlns="http://www.w3.org/2000/svg" xmlns:xlink="http://www.w3.org/1999/xlink">
    <!-- Generator: Sketch 52.3 (67297) - http://www.bohemiancoding.com/sketch -->
    <title>logo-200x66</title>
    <desc>Created with Sketch.</desc>
    <g id="logo-200x66" stroke="none" stroke-width="1" fill="none" fill-rule="evenodd">
        <text id="SAM" font-family="Gilroy-Medium, Gilroy" font-size="44" font-weight="400" letter-spacing="2.816" fill="#4596EC">
            <tspan x="16" y="48">SAM</tspan>
        </text>
        <path d="M174.553319,49.9991806 L138.309297,49.9991806 C130.417718,49.9991806 124,43.5500776 124,35.6267942 C124,27.7004212 130.420794,21.2544079 138.309297,21.2544079 C139.111228,21.2544079 139.913158,21.3226227 140.783031,21.522028 C144.126637,16.7520991 149.544616,14 155.361822,14 C163.922123,14 171.209847,20.0450265 172.94986,28.3723863 C173.485358,28.3041716 174.020883,28.2385763 174.553721,28.2385763 C180.572212,28.2385763 185.454545,33.1423018 185.454545,39.1874626 C185.454545,45.2298696 180.572345,50 174.553721,50 L174.553319,49.9991806 Z M138.498,24.1757159 C132.134516,24.1757159 126.909091,29.4237794 126.909091,35.8151307 C126.909091,42.206482 132.134382,47.4545455 138.498,47.4545455 L174.802682,47.4545455 C179.290077,47.4545455 182.909091,43.8227197 182.909091,39.3128081 C182.909091,34.8058567 179.293024,31.1710708 174.802682,31.1710708 C174.064786,31.1710708 173.329569,31.305098 172.45824,31.5757761 C172.055291,31.7098033 171.654968,31.6441016 171.320048,31.3734235 C170.985127,31.1710708 170.783653,30.7689893 170.718236,30.364284 C169.781531,22.6961694 163.349991,16.9090909 155.646826,16.9090909 C150.421535,16.9090909 145.667544,19.5317771 142.851534,23.9730673 C142.516614,24.4434743 141.91483,24.7141793 141.378421,24.5775015 C140.240228,24.3094471 139.3689,24.1754199 138.497572,24.1754199 L138.498,24.1757159 Z" id="Shape-Copy" stroke="#92BE61" fill="#92BE61" fill-rule="nonzero" transform="translate(154.727273, 32.000000) scale(-1, 1) translate(-154.727273, -32.000000) "></path>
    </g>
</svg>